<svg width="86" height="84" viewBox="0 0 86 84" fill="none" xmlns="http://www.w3.org/2000/svg">
<path opacity="0.8" d="M26.1662 1.40002H60.3612C63.5086 1.40002 66.0604 3.90745 66.0604 7.00002V12.6H20.467V7.00002C20.467 3.90745 23.0189 1.40002 26.1662 1.40002Z" fill="#27ACE2"/>
<path opacity="0.8" d="M20.467 68.6H66.0604V77C66.0604 80.0925 63.5086 82.6 60.3612 82.6H26.1662C23.0189 82.6 20.467 80.0925 20.467 77V68.6Z" fill="#27ACE2"/>
<path d="M21.8918 14H58.9364V11.2H21.8918V7C21.8918 4.68057 23.8057 2.8 26.1662 2.8H60.3612C62.7217 2.8 64.6356 4.68057 64.6356 7V19.6H67.4852V7C67.4803 3.13564 64.294 0.00478517 60.3612 0H26.1662C22.2334 0.00478517 19.0471 3.13564 19.0422 7V25.2H21.8918V14Z" fill="#0060AA"/>
<path d="M64.6356 67.2H27.591V70H64.6356V77C64.6356 79.3194 62.7217 81.2 60.3612 81.2H26.1662C23.8057 81.2 21.8918 79.3194 21.8918 77V67.2H19.0422V77C19.0471 80.8643 22.2334 83.9952 26.1662 84H60.3612C64.294 83.9952 67.4803 80.8643 67.4852 77V61.6H64.6356V67.2Z" fill="#0060AA"/>
<path d="M41.8389 74.2H44.6884V77H41.8389V74.2Z" fill="#0060AA"/>
<path d="M31.8652 5.60004H34.7148V8.40004H31.8652V5.60004Z" fill="#0060AA"/>
<path d="M37.5645 5.60004H40.414V8.40004H37.5645V5.60004Z" fill="#0060AA"/>
<path d="M24.7415 18.2V23.8H27.591V19.6H31.8654V16.8H26.1662C25.3794 16.8 24.7415 17.4268 24.7415 18.2Z" fill="#0060AA"/>
<g opacity="0.8">
<path d="M58.9709 43C58.9709 51.068 52.3144 57.6087 44.1035 57.6087C35.8926 57.6087 29.2361 51.068 29.2361 43C29.2361 34.932 35.8926 28.3913 44.1035 28.3913C52.3144 28.3913 58.9709 34.932 58.9709 43Z" fill="#27ACE2"/>
</g>
<path d="M44.3719 22C32.5875 22 23 31.4198 23 43C23 54.5802 32.5875 64 44.3719 64C56.1572 64 65.7438 54.5802 65.7438 43C65.7438 31.4198 56.1572 22 44.3719 22ZM44.3719 62.1739C33.6115 62.1739 24.8584 53.5722 24.8584 43C24.8584 32.4278 33.6115 23.8261 44.3719 23.8261C55.1313 23.8261 63.8853 32.4278 63.8853 43C63.8853 53.5722 55.1313 62.1739 44.3719 62.1739Z" fill="#0060AA" stroke="#0060AA"/>
<path d="M44.1033 56.6957C43.5906 56.6957 43.1741 57.1036 43.1741 57.6087C43.1741 58.1138 43.5906 58.5218 44.1033 58.5218C52.8137 58.5218 59.8999 51.5589 59.8999 43C59.8999 42.4949 59.4847 42.087 58.9707 42.087C58.4566 42.087 58.0415 42.4949 58.0415 43C58.0415 50.5518 51.7888 56.6957 44.1033 56.6957Z" fill="#0060AA"/>
<path d="M44.1035 29.3044C44.6162 29.3044 45.0327 28.8964 45.0327 28.3913C45.0327 27.8862 44.6162 27.4783 44.1035 27.4783C35.393 27.4783 28.3069 34.4411 28.3069 43C28.3069 43.5051 28.7234 43.9131 29.2361 43.9131C29.7488 43.9131 30.1653 43.5051 30.1653 43C30.1653 35.4482 36.418 29.3044 44.1035 29.3044Z" fill="#0060AA"/>
<path d="M34.2472 51.3935L32.9369 52.6801C32.5735 53.0363 32.5735 53.6141 32.9369 53.9712C33.1184 54.1491 33.357 54.2387 33.5948 54.2387C33.8325 54.2387 34.0707 54.1491 34.2517 53.9712L35.5621 52.6846C35.9255 52.3284 35.9255 51.7506 35.5621 51.3935C35.1987 51.0377 34.6106 51.0377 34.2472 51.3935Z" fill="#0060AA" stroke="#0060AA"/>
<path d="M53.3026 34.874C53.5403 34.874 53.7785 34.7844 53.9596 34.6065L55.269 33.3199C55.6324 32.9628 55.6324 32.3859 55.269 32.0288C54.9056 31.6716 54.3185 31.6716 53.955 32.0288L52.6456 33.3154C52.2822 33.6725 52.2822 34.2494 52.6456 34.6065C52.828 34.7844 53.0658 34.874 53.3026 34.874Z" fill="#0060AA" stroke="#0060AA"/>
<path d="M42.9292 35C42.4165 35 42 35.4079 42 35.913V45.0435C42 45.5486 42.4165 45.9565 42.9292 45.9565H52.2213C52.7354 45.9565 53.1505 45.5486 53.1505 45.0435C53.1505 44.5384 52.7354 44.1304 52.2213 44.1304H43.8584V35.913C43.8584 35.4079 43.4419 35 42.9292 35Z" fill="#0060AA"/>
</svg>
